<!--?xml version="1.0" encoding="utf-8"?-->
<svg viewBox="0 0 500 500" xmlns="http://www.w3.org/2000/svg" xmlns:bx="https://boxy-svg.com" style="" class="">
  <path style="stroke: rgb(255, 0, 0); stroke-width: 3.768px; fill: none;" transform="matrix(0.01078, 0.530676, -0.530676, 0.01078, 519.998413, -0.927484)" d="M 436.667 308.497 L 487.971 308.497 L 498.798 386.856 A 136.29 136.29 0 0 1 529.38 399.524 L 592.444 351.771 L 628.721 388.049 L 580.969 451.113 A 136.29 136.29 0 0 1 593.636 481.694 L 671.995 492.521 L 671.995 543.825 L 593.636 554.652 A 136.29 136.29 0 0 1 580.969 585.234 L 628.721 648.298 L 592.444 684.576 L 529.38 636.823 A 136.29 136.29 0 0 1 498.798 649.49 L 487.971 727.85 L 436.667 727.85 L 425.84 649.49 A 136.29 136.29 0 0 1 395.259 636.823 L 332.194 684.576 L 295.917 648.298 L 343.669 585.234 A 136.29 136.29 0 0 1 331.002 554.652 L 252.643 543.825 L 252.643 492.521 L 331.002 481.694 A 136.29 136.29 0 0 1 343.669 451.113 L 295.917 388.049 L 332.194 351.771 L 395.259 399.524 A 136.29 136.29 0 0 1 425.84 386.856 Z M 462.319 455.27 A 62.903 62.903 0 0 0 462.319 581.076 A 62.903 62.903 0 0 0 462.319 455.27" bx:shape="cog 462.319 518.173 62.903 136.29 209.676 0.38 8 1@c28e8bfe" class="dXZqgosK_0"></path>
  <path d="M 528.704 325.077 L 588.27 412.212 L 692.003 392.718 L 672.509 496.451 L 759.644 556.017 L 672.509 615.583 L 692.003 719.316 L 588.27 699.822 L 528.704 786.957 L 469.138 699.822 L 365.405 719.316 L 384.899 615.583 L 297.764 556.017 L 384.899 496.451 L 365.405 392.718 L 469.138 412.212 Z" style="fill: none; stroke: rgb(102, 255, 0); stroke-width: 2px;" transform="matrix(-1, -0.000002, 0.000002, -1, 778.702881, 806.018066)" bx:shape="star 528.704 556.017 230.94 230.94 0.674 8 1@2642d655" class="dXZqgosK_1"></path>
<style data-made-with="vivus-instant">.dXZqgosK_0{stroke-dasharray:2337 2339;stroke-dashoffset:2338;}.start .dXZqgosK_0{animation:dXZqgosK_draw_0 3100ms linear 0ms infinite,dXZqgosK_fade 3100ms linear 0ms infinite;}.dXZqgosK_1{stroke-dasharray:1689 1691;stroke-dashoffset:1690;}.start .dXZqgosK_1{animation:dXZqgosK_draw_1 3100ms linear 0ms infinite,dXZqgosK_fade 3100ms linear 0ms infinite;}@keyframes dXZqgosK_draw{100%{stroke-dashoffset:0;}}@keyframes dXZqgosK_fade{0%{stroke-opacity:1;}96.7741935483871%{stroke-opacity:1;}100%{stroke-opacity:0;}}@keyframes dXZqgosK_draw_0{0%{stroke-dashoffset: 2338}93.54838709677419%{ stroke-dashoffset: 0;}100%{ stroke-dashoffset: 0;}}@keyframes dXZqgosK_draw_1{3.225806451612903%{stroke-dashoffset: 1690}96.7741935483871%{ stroke-dashoffset: 0;}100%{ stroke-dashoffset: 0;}}</style></svg>